PathFileType	4	(X/Y/Z)	/home/abdul/Desktop/myosuite/custom_workspace/IK/output/S12_12_1.trc
DataRate	CameraRate	NumFrames	NumMarkers	Units	OrigDataRate	OrigDataStartFrame	OrigNumFrames
200.0	200.0	28	3	mm	200.0	521	2082
Frame#	Time	V_Shoulder			V_Elbow			V_Wrist		
		X1	Y1	Z1	X2	Y2	Z2	X3	Y3	Z3

521	2.6	18.012117003758977	698.7043906586605	272.1621544087715	-74.71161832018763	587.0506015468552	28.62114103561808	-28.954206885819964	328.9243295051921	43.71709407687638
522	2.605	17.99506339689273	698.6002424059744	272.1410536937362	-74.6583168536102	586.9384711914691	28.615747550570756	-28.781786547433	328.72620181959144	43.656757062652176
523	2.61	17.97874614327105	698.4960645270562	272.11998614580244	-74.60529204189552	586.8282999713028	28.609384478516972	-28.608058585597753	328.5326906273094	43.59394458638718
524	2.615	17.96315098276403	698.3919136960243	272.0989578689102	-74.55261354070527	586.7201554306332	28.6020651312215	-28.433121618977296	328.3439686396474	43.52865083171854
525	2.62	17.948263844852963	698.2878464941067	272.0779752741351	-74.50034926361965	586.6141011084944	28.59380485799985	-28.257076560850077	328.16019909748684	43.46087517540706
526	2.625	17.93407086889875	698.1839193432605	272.0570450598244	-74.44856524754968	586.5101964142264	28.58462101696459	-28.080026763396738	327.9815353513777	43.390622090861484
527	2.63	17.92055842226334	698.0801884400602	272.03617419034435	-74.39732552676924	586.408496519854	28.574532936945428	-27.902078153504732	327.80812048136227	43.317901025368535
528	2.635	17.907713116229246	697.9767096899462	272.0153698734964	-74.34669201601827	586.3090522696286	28.56356187016507	-27.723339359051536	327.64008695765517	43.24272625186047
529	2.64	17.895521819669188	697.8735386419286	271.9946395366617	-74.29672440309912	586.2119101069871	28.55173093580021	-27.543921824687622	327.4775563431177	43.16511669623199
530	2.645	17.883971670425318	697.7707304238342	271.9739908017406	-74.24748005135712	586.1171120191207	28.539065054603707	-27.36393991620327	327.3206390382807	43.085095741393694
531	2.65	17.87305008436492	697.6683396781914	271.9534314589605	-74.19901391240315	586.0246954992741	28.52559087481046	-27.183511012627726	327.1694340694882	43.00269100941789
532	2.655	17.862744762087186	697.5664204988415	271.93296943962565	-74.15137844940134	585.9346935268262	28.511336689594646	-27.002755585274958	327.0240289205492	42.91793412329419
533	2.66	17.853043693263114	697.4650263683644	271.9126127878944	-74.1046235712081	585.8471345651341	28.49633234639014	-26.82179726301694	326.8844994081046	42.83086044996412
534	2.665	17.843935158598555	697.3642100964101	271.89236963166746	-74.05879657761082	585.7620425770549	28.480609148428808	-26.640762883132332	326.75090960073396	42.74150882644657
535	2.67	17.835407729417984	697.2640237590173	271.8722481526798	-74.0139421158742	585.6794370579879	28.464199748892096	-26.459782527145364	326.6233117816523	42.64992127099638
536	2.675	17.82745026487463	697.1645186390083	271.8522565558901	-73.97010214876117	585.5993330862173	28.447138038110587	-26.27898954113635	326.50174645467257	42.5561426813578
537	2.68	17.820051906800085	697.065745167542	271.83240303826824	-73.92731593415309	585.5217413902644	28.42945902428284	-26.098520540071288	326.3862423929413	42.460220522279755
538	2.685	17.813202072214462	696.9677528669041	271.8126957570817	-73.88562001634939	585.4466684329009	28.41119870821946	-25.918515395762547	326.2768167297935	42.36220450455204
539	2.69	17.80689044352583	696.870590294618	271.7931427977882	-73.84504822908322	585.374116511402	28.3923939526501	-25.73911720813638	326.1734750909136	42.26214625789885
540	2.695	17.801106956455154	696.7743049889486	271.7737521416412	-73.80563171024295	585.3040838735707	28.373082346660063	-25.56047225954491	326.07621176684347	42.160099000128525
541	2.7	17.795841785730673	696.6789434158787	271.75453163312204	-73.7673989282443	585.2365648489931	28.353302065849274	-25.382729951920354	325.9850099247316	42.05611720498507
542	2.705	17.79108532860285	696.584550917626	271.735488947309	-73.73037571995046	585.1715499949396	28.33309172882934	-25.206042726627558	325.89984185808663	41.95025627117856
543	2.71	17.786828186238278	696.4911716627721	271.71663155730056	-73.69458533999114	585.1090262562655	28.312490250693934	-25.030565966926957	325.82066927317146	41.842572195086404
544	2.715	17.7830611430581	696.3988485980741	271.697966701806	-73.66004852128412	585.0489771386219	28.29153669411414	-24.856457883014397	325.74744361055804	41.733121249617405
545	2.72	17.779775144093197	696.3076234020169	271.6795013530229	-73.62678354651652	584.9913828942341	28.270270118723175	-24.68387937965575	325.6801064002546	41.621959671713775
546	2.725	17.776961270435233	696.2175364401736	271.6612421849157	-73.59480633029585	584.9362207194652	28.24872942946415	-24.512993906484212	325.61858964872	41.509143360934665
547	2.73	17.774610712868796	696.1286267224285	271.6431955420148	-73.56413051163594	584.8834649633407	28.22695322458029	-24.343967291075444	325.5628162559932	41.39472759151773
548	2.735	17.772714743776294	696.0409318621241	271.62536740884997	-73.53476755639636	584.8330873461744	28.204979643929143	-24.176967554961248	325.5127004610864	41.278766740253246
